<svg xmlns="http://www.w3.org/2000/svg" viewBox="0 0 32 32" role="img" aria-label="Clopos">
  <defs>
    <linearGradient id="clopos-mark" x1="-0.6" y1="30.9" x2="40.5" y2="-6.7" gradientUnits="userSpaceOnUse">
      <stop stop-color="#4C9AFF"/>
      <stop offset="1" stop-color="#0052CC"/>
    </linearGradient>
  </defs>
  <path fill="url(#clopos-mark)" fill-rule="evenodd" d="M28.6806 16.7385C30.0417 16.7385 31.1111 17.8215 31.1111 19.2V29.0462C31.1111 30.4246 30.0417 31.5077 28.6806 31.5077H18.9583C17.5972 31.5077 16.5278 30.4246 16.5278 29.0462V19.2C16.5278 17.8215 17.5972 16.7385 18.9583 16.7385H28.6806ZM12.1528 16.7385C13.5139 16.7385 14.5833 17.8215 14.5833 19.2V29.0462C14.5833 30.4246 13.5139 31.5077 12.1528 31.5077H2.43056C1.06944 31.5077 0 30.4246 0 29.0462V19.2C0 17.8215 1.06944 16.7385 2.43056 16.7385H12.1528ZM28.1945 18.2154H19.4444C18.6181 18.2154 17.9861 18.8554 17.9861 19.6923V28.5538C17.9861 29.3908 18.6181 30.0308 19.4444 30.0308H28.1945C29.0208 30.0308 29.6528 29.3908 29.6528 28.5538V19.6923C29.6528 18.8554 29.0208 18.2154 28.1945 18.2154ZM28.6806 0C30.0417 0 31.1111 1.08308 31.1111 2.46154V12.3077C31.1111 13.6862 30.0417 14.7692 28.6806 14.7692H18.9583C17.5972 14.7692 16.5278 13.6862 16.5278 12.3077V2.46154C16.5278 1.08308 17.5972 0 18.9583 0H28.6806ZM12.1528 0C13.5139 0 14.5833 1.08308 14.5833 2.46154V12.3077C14.5833 13.6862 13.5139 14.7692 12.1528 14.7692H2.43056C1.06944 14.7692 0 13.6862 0 12.3077V2.46154C0 1.08308 1.06944 0 2.43056 0H12.1528Z"/>
</svg>
