<svg xmlns="http://www.w3.org/2000/svg" viewBox="0 0 140 32" role="img" aria-label="Clopos">
  <defs>
    <linearGradient id="paint0_linear_2101_8587" x1="-0.58061" y1="30.8721" x2="40.5131" y2="-6.66613" gradientUnits="userSpaceOnUse">
      <stop stop-color="#4C9AFF"/>
      <stop offset="1" stop-color="#0052CC"/>
    </linearGradient>
  </defs>
  <path d="M51.2854 24.8614C52.8409 24.8614 54.1048 24.6152 55.077 24.0737C56.0493 23.5322 56.9729 22.8429 57.7507 21.9568L54.7854 19.2983C54.3965 19.6922 54.1048 19.9383 53.9104 20.086C53.7159 20.2337 53.3757 20.4306 52.8895 20.6768C52.4034 20.9229 51.8687 21.0214 51.2854 21.0214C49.827 21.0214 48.709 20.5291 47.9312 19.4952C47.1534 18.4614 46.7645 17.2306 46.7645 15.7537C46.7645 14.2275 47.1534 12.9968 47.9312 11.9629C48.709 10.9291 49.827 10.4368 51.2854 10.4368C52.5493 10.4368 53.7159 11.0275 54.7854 12.1599L57.5562 9.40293C56.827 8.56601 55.952 7.87678 54.834 7.4337C53.7159 6.99062 52.5007 6.74447 51.2368 6.74447C48.4659 6.74447 46.327 7.63062 44.8201 9.3537C43.3132 11.0768 42.584 13.2429 42.584 15.7537C42.584 18.3137 43.3132 20.4306 44.8201 22.2029C46.327 23.9752 48.4659 24.8614 51.2854 24.8614ZM67.4243 24.6152C68.2507 24.6152 68.8826 24.4675 69.2715 24.1722V20.726C68.834 20.8245 68.3479 20.8737 67.7645 20.8737C65.6743 20.8737 64.6534 19.7906 64.6534 17.6737V0.196777L60.6673 0.492162V18.4122C60.6673 20.4799 61.2993 22.006 62.6118 23.0399C63.9243 24.0737 65.5284 24.6152 67.4243 24.6152ZM79.1395 24.8614C81.8618 24.8614 83.952 23.9752 85.459 22.2522C86.9659 20.4799 87.6951 18.3629 87.6951 15.8522C87.6951 13.2922 86.9659 11.1752 85.459 9.40293C83.952 7.63062 81.8618 6.7937 79.1395 6.7937C76.3687 6.7937 74.2784 7.67985 72.7715 9.40293C71.2645 11.126 70.5354 13.2922 70.5354 15.8029C70.5354 18.3629 71.2645 20.5291 72.7715 22.3014C74.2784 23.9752 76.3687 24.8614 79.1395 24.8614ZM79.1395 21.0706C77.7298 21.0706 76.6118 20.5783 75.8826 19.5445C75.1534 18.5106 74.7645 17.2799 74.7645 15.8029C74.7645 14.2768 75.1534 13.046 75.8826 12.0122C76.6118 10.9783 77.7298 10.486 79.1882 10.486C80.5493 10.486 81.6187 10.9783 82.3479 12.0122C83.077 13.046 83.4659 14.2768 83.4659 15.7537C83.4659 17.2306 83.077 18.5106 82.3479 19.5445C81.6187 20.5783 80.5493 21.0706 79.1395 21.0706ZM90.7576 31.7045L94.7923 31.4091V24.4675C96.0076 24.7629 97.1743 24.8614 98.1951 24.8614C100.917 24.8614 103.008 23.9752 104.515 22.2522C106.021 20.4799 106.751 18.3629 106.751 15.8522C106.751 13.2922 106.021 11.1752 104.563 9.40293C103.105 7.63062 100.966 6.7937 98.2437 6.7937C96.0076 6.7937 93.5284 7.33524 90.8062 8.46755V31.7045H90.7576ZM98.0979 21.0706C96.9798 21.0706 95.8618 20.8737 94.7923 20.4306V11.2737C95.8132 10.7322 96.9312 10.486 98.0979 10.486C99.5076 10.486 100.577 10.9783 101.355 12.0122C102.133 13.046 102.521 14.2768 102.521 15.7045C102.521 17.1814 102.133 18.4614 101.355 19.4952C100.577 20.5783 99.5076 21.0706 98.0979 21.0706ZM117.494 24.8614C120.216 24.8614 122.306 23.9752 123.813 22.2522C125.32 20.4799 126.049 18.3629 126.049 15.8522C126.049 13.2922 125.32 11.1752 123.813 9.40293C122.306 7.63062 120.216 6.7937 117.494 6.7937C114.723 6.7937 112.633 7.67985 111.126 9.40293C109.619 11.126 108.89 13.2922 108.89 15.8029C108.89 18.3629 109.619 20.5291 111.126 22.3014C112.633 23.9752 114.723 24.8614 117.494 24.8614ZM117.494 21.0706C116.084 21.0706 114.966 20.5783 114.237 19.5445C113.508 18.5106 113.119 17.2799 113.119 15.8029C113.119 14.2768 113.508 13.046 114.237 12.0122C114.966 10.9783 116.084 10.486 117.542 10.486C118.903 10.486 119.973 10.9783 120.702 12.0122C121.431 13.046 121.82 14.2768 121.82 15.7537C121.82 17.2306 121.431 18.5106 120.702 19.5445C119.973 20.5783 118.903 21.0706 117.494 21.0706ZM133.633 24.7629C135.334 24.7629 136.841 24.3199 138.056 23.3845C139.271 22.4983 139.903 21.2183 139.903 19.6429C139.903 17.1322 138.299 15.3106 135.14 14.1783C133.244 13.4891 132.271 12.7506 132.271 11.9629C132.271 10.6829 133.146 10.0429 134.896 10.0429C135.723 10.0429 136.792 10.2399 138.056 10.6829L139.126 7.58139C137.667 6.99062 136.258 6.74447 134.945 6.74447C134.167 6.74447 133.438 6.7937 132.806 6.94139C132.126 7.08909 131.494 7.33524 130.862 7.67985C130.23 8.02447 129.744 8.56601 129.355 9.30447C129.015 10.0429 128.82 10.8799 128.82 11.9137C128.82 14.2768 130.133 15.9014 132.806 16.7875C134.216 17.2799 135.188 17.7229 135.723 18.0675C136.209 18.4614 136.452 18.9045 136.452 19.4952C136.452 20.1352 136.16 20.5783 135.626 20.8737C135.042 21.1691 134.41 21.3168 133.584 21.3168C131.883 21.3168 130.57 20.9722 129.598 20.3322L128.431 23.4337C128.917 23.8275 129.695 24.1229 130.765 24.3691C131.834 24.6152 132.758 24.7629 133.633 24.7629Z" fill="#3E396B"/>
  <path fill="url(#paint0_linear_2101_8587)" fill-rule="evenodd" d="M28.6806 16.7385C30.0417 16.7385 31.1111 17.8215 31.1111 19.2V29.0462C31.1111 30.4246 30.0417 31.5077 28.6806 31.5077H18.9583C17.5972 31.5077 16.5278 30.4246 16.5278 29.0462V19.2C16.5278 17.8215 17.5972 16.7385 18.9583 16.7385H28.6806ZM12.1528 16.7385C13.5139 16.7385 14.5833 17.8215 14.5833 19.2V29.0462C14.5833 30.4246 13.5139 31.5077 12.1528 31.5077H2.43056C1.06944 31.5077 0 30.4246 0 29.0462V19.2C0 17.8215 1.06944 16.7385 2.43056 16.7385H12.1528ZM28.1945 18.2154H19.4444C18.6181 18.2154 17.9861 18.8554 17.9861 19.6923V28.5538C17.9861 29.3908 18.6181 30.0308 19.4444 30.0308H28.1945C29.0208 30.0308 29.6528 29.3908 29.6528 28.5538V19.6923C29.6528 18.8554 29.0208 18.2154 28.1945 18.2154ZM28.6806 0C30.0417 0 31.1111 1.08308 31.1111 2.46154V12.3077C31.1111 13.6862 30.0417 14.7692 28.6806 14.7692H18.9583C17.5972 14.7692 16.5278 13.6862 16.5278 12.3077V2.46154C16.5278 1.08308 17.5972 0 18.9583 0H28.6806ZM12.1528 0C13.5139 0 14.5833 1.08308 14.5833 2.46154V12.3077C14.5833 13.6862 13.5139 14.7692 12.1528 14.7692H2.43056C1.06944 14.7692 0 13.6862 0 12.3077V2.46154C0 1.08308 1.06944 0 2.43056 0H12.1528Z"/>
</svg>
