<svg xmlns="http://www.w3.org/2000/svg" viewBox="0 0 64 64" role="img" aria-label="iBox">
  <rect width="64" height="64" rx="14" fill="#000066"/>
  <g transform="translate(5 5)">
    <path d="M 33.015 1.073 C 35.041 -0.504 37.925 -0.324 39.74 1.491 L 52.509 14.26 C 54.324 16.075 54.504 18.959 52.927 20.985 L 48.25 27 L 27 5.751 Z M 1.073 20.985 C -0.504 18.959 -0.324 16.075 1.491 14.26 L 14.26 1.491 C 16.075 -0.324 18.959 -0.504 20.985 1.072 L 27 5.751 L 5.75 27 L 1.073 20.985 Z M 20.985 52.927 C 18.959 54.504 16.075 54.324 14.26 52.509 L 1.491 39.74 C -0.324 37.925 -0.504 35.041 1.073 33.015 L 5.75 27 L 27 48.25 Z M 52.927 33.015 C 54.504 35.041 54.324 37.925 52.509 39.74 L 39.74 52.509 C 37.925 54.324 35.041 54.504 33.015 52.927 L 27 48.25 L 48.249 27 Z" fill="#fff"/>
    <path d="M 44.041 22.762 L 48.291 27.012 L 27.042 48.261 L 19.469 40.689 Z" fill="#c1c1c1"/>
    <path d="M 27.021 5.812 L 48.27 27.061 L 44.02 31.311 L 25.958 6.874 Z" fill="#c1c1c1"/>
  </g>
</svg>
