<svg xmlns="http://www.w3.org/2000/svg" viewBox="0 0 178 64" role="img" aria-label="iBox">
  <rect width="178" height="64" rx="14" fill="#000066"/>
  <g transform="translate(12 5)">
    <path d="M 33.015 1.073 C 35.041 -0.504 37.925 -0.324 39.74 1.491 L 52.509 14.26 C 54.324 16.075 54.504 18.959 52.927 20.985 L 48.25 27 L 27 5.751 Z M 1.073 20.985 C -0.504 18.959 -0.324 16.075 1.491 14.26 L 14.26 1.491 C 16.075 -0.324 18.959 -0.504 20.985 1.072 L 27 5.751 L 5.75 27 L 1.073 20.985 Z M 20.985 52.927 C 18.959 54.504 16.075 54.324 14.26 52.509 L 1.491 39.74 C -0.324 37.925 -0.504 35.041 1.073 33.015 L 5.75 27 L 27 48.25 Z M 52.927 33.015 C 54.504 35.041 54.324 37.925 52.509 39.74 L 39.74 52.509 C 37.925 54.324 35.041 54.504 33.015 52.927 L 27 48.25 L 48.249 27 Z" fill="#fff"/>
    <path d="M 44.041 22.762 L 48.291 27.012 L 27.042 48.261 L 19.469 40.689 Z" fill="#c1c1c1"/>
    <path d="M 27.021 5.812 L 48.27 27.061 L 44.02 31.311 L 25.958 6.874 Z" fill="#c1c1c1"/>
  </g>
  <g transform="translate(72 15)">
    <path d="M 17.491 0 C 18.556 0 19.469 0.386 20.231 1.157 C 20.993 1.928 21.373 2.862 21.373 3.959 C 21.373 5.042 20.997 5.964 20.242 6.728 C 19.487 7.492 18.585 7.874 17.536 7.874 C 16.456 7.874 15.535 7.485 14.773 6.707 C 14.011 5.928 13.63 4.982 13.63 3.871 C 13.63 2.803 14.007 1.891 14.762 1.135 C 15.517 0.379 16.426 0 17.491 0 Z M 14.454 9.965 L 20.528 9.965 L 20.528 34.166 L 14.454 34.166 Z M 32.075 0.623 L 32.075 12.634 C 33.173 11.537 34.359 10.714 35.635 10.165 C 36.911 9.617 38.275 9.342 39.729 9.342 C 42.888 9.342 45.573 10.536 47.784 12.923 C 49.994 15.311 51.099 18.373 51.099 22.109 C 51.099 25.713 49.956 28.726 47.673 31.151 C 45.388 33.575 42.682 34.787 39.552 34.787 C 38.157 34.787 36.86 34.538 35.658 34.042 C 34.457 33.546 33.262 32.733 32.077 31.607 L 32.077 34.165 L 26.047 34.165 L 26.047 0.623 Z M 38.461 14.947 C 36.547 14.947 34.96 15.601 33.7 16.905 C 32.439 18.21 31.808 19.915 31.808 22.021 C 31.808 24.171 32.439 25.91 33.7 27.237 C 34.96 28.563 36.547 29.227 38.461 29.227 C 40.315 29.227 41.876 28.552 43.144 27.203 C 44.412 25.854 45.046 24.134 45.046 22.043 C 45.046 19.967 44.423 18.265 43.177 16.938 C 41.932 15.611 40.36 14.947 38.461 14.947 Z M 67.496 9.342 C 69.779 9.342 71.926 9.913 73.937 11.055 C 75.947 12.197 77.515 13.746 78.643 15.704 C 79.77 17.661 80.334 19.775 80.334 22.044 C 80.334 24.328 79.766 26.463 78.632 28.45 C 77.497 30.437 75.951 31.991 73.993 33.11 C 72.035 34.229 69.877 34.789 67.519 34.789 C 64.048 34.789 61.085 33.554 58.629 31.085 C 56.174 28.616 54.947 25.618 54.947 22.087 C 54.947 18.306 56.334 15.155 59.108 12.634 C 61.541 10.439 64.337 9.342 67.496 9.342 Z M 67.596 15.059 C 65.708 15.059 64.137 15.715 62.883 17.028 C 61.627 18.34 61 20.019 61 22.066 C 61 24.171 61.621 25.877 62.861 27.182 C 64.101 28.487 65.672 29.139 67.574 29.139 C 69.476 29.139 71.058 28.48 72.321 27.159 C 73.584 25.84 74.216 24.142 74.216 22.066 C 74.216 19.99 73.595 18.303 72.355 17.005 C 71.114 15.708 69.528 15.059 67.596 15.059 Z M 83.115 9.965 L 90.167 9.965 L 94.952 16.56 L 99.712 9.965 L 106.646 9.965 L 98.429 21.353 L 107.722 34.165 L 100.67 34.165 L 94.912 26.227 L 89.183 34.165 L 82.248 34.165 L 91.435 21.434 Z" fill="#fff"/>
  </g>
</svg>
